<svg width="44" height="29" viewBox="0 0 44 29" fill="none" xmlns="http://www.w3.org/2000/svg">
<path d="M14.6667 0C6.56333 0 0 6.48875 0 14.5C0 22.5113 6.56333 29 14.6667 29C22.77 29 29.3333 22.5113 29.3333 14.5C29.3333 6.48875 22.77 0 14.6667 0ZM20.3683 20.1369C20.0287 20.4678 19.571 20.6534 19.0942 20.6534C18.6173 20.6534 18.1596 20.4678 17.82 20.1369L13.8967 16.2581C13.2183 15.5875 12.8333 14.6631 12.8333 13.7025V9.0625C12.8333 8.02938 13.7133 7.1775 14.795 7.25C15.7667 7.3225 16.5 8.15625 16.5 9.11687V13.7931L20.3683 17.6175C20.7031 17.9532 20.8908 18.4057 20.8908 18.8772C20.8908 19.3486 20.7031 19.8011 20.3683 20.1369V20.1369ZM38.3167 23.3812C37.62 22.6925 37.5833 21.7319 38.115 21.025C39.5083 19.2125 40.315 16.9469 40.315 14.5C40.315 12.0531 39.49 9.7875 38.115 7.975C37.565 7.26812 37.62 6.28937 38.3167 5.61875C38.4982 5.4388 38.7164 5.29907 38.9567 5.20883C39.197 5.11859 39.454 5.0799 39.7105 5.09532C39.9671 5.11075 40.2175 5.17994 40.445 5.29831C40.6724 5.41667 40.8719 5.58151 41.03 5.78188C42.9 8.1925 44 11.2194 44 14.5C44 17.7806 42.9 20.8075 41.03 23.2362C40.37 24.0881 39.0867 24.1425 38.3167 23.3812ZM33.6967 18.8138C33.0367 18.1613 33.0183 17.3094 33.4033 16.5844C33.7333 15.9681 33.9167 15.2431 33.9167 14.5C33.9167 13.7569 33.7333 13.0319 33.4033 12.4156C33.0183 11.6906 33.0733 10.8025 33.66 10.2225C34.5583 9.33438 35.97 9.53375 36.5567 10.5669C37.2167 11.7269 37.5833 13.0863 37.5833 14.5C37.5833 15.9137 37.2167 17.2731 36.5567 18.4331C35.9883 19.4663 34.54 19.6475 33.6967 18.8138V18.8138Z" fill="#EEEEEE"/>
</svg>
